<svg version="1.1" xmlns="http://www.w3.org/2000/svg" viewBox="0 0 793.884765625 220.953125" width="1587.76953125" height="441.90625">
  <!-- svg-source:excalidraw -->
  
  <defs>
    <style class="style-fonts">
      @font-face {
        font-family: "Virgil";
        src: url("https://excalidraw.com/Virgil.woff2");
      }
      @font-face {
        font-family: "Cascadia";
        src: url("https://excalidraw.com/Cascadia.woff2");
      }
    </style>
  </defs>
  <g stroke-linecap="round" transform="translate(260.7744140625 10) rotate(0 136.16796875 29.734375)"><path d="M0 0 C80.43 0, 160.86 0, 272.34 0 M0 0 C55.19 0, 110.39 0, 272.34 0 M272.34 0 C272.34 19.95, 272.34 39.89, 272.34 59.47 M272.34 0 C272.34 19.99, 272.34 39.99, 272.34 59.47 M272.34 59.47 C206.16 59.47, 139.99 59.47, 0 59.47 M272.34 59.47 C212.3 59.47, 152.26 59.47, 0 59.47 M0 59.47 C0 44.4, 0 29.33, 0 0 M0 59.47 C0 37.62, 0 15.77, 0 0" stroke="#000000" stroke-width="4" fill="none"></path></g><g transform="translate(332.4423828125 17.734375) rotate(0 64.5 22)"><text x="64.5" y="35" font-family="Cascadia, Segoe UI Emoji" font-size="36px" fill="#000000" text-anchor="middle" style="white-space: pre;" direction="ltr">Модуль</text></g><g stroke-linecap="round" transform="translate(10 156.744140625) rotate(0 109.826171875 27)"><path d="M0 0 C81.52 0, 163.03 0, 219.65 0 M0 0 C56.63 0, 113.27 0, 219.65 0 M219.65 0 C219.65 18.59, 219.65 37.17, 219.65 54 M219.65 0 C219.65 15.12, 219.65 30.24, 219.65 54 M219.65 54 C145.75 54, 71.85 54, 0 54 M219.65 54 C171.9 54, 124.14 54, 0 54 M0 54 C0 38.91, 0 23.82, 0 0 M0 54 C0 37.94, 0 21.89, 0 0" stroke="#000000" stroke-width="4" fill="none"></path></g><g transform="translate(61.326171875 166.744140625) rotate(0 58.5 17)"><text x="58.5" y="27" font-family="Cascadia, Segoe UI Emoji" font-size="28px" fill="#000000" text-anchor="middle" style="white-space: pre;" direction="ltr">Плагіни</text></g><g stroke-linecap="round" transform="translate(564.232421875 156.27734375) rotate(0 109.826171875 27)"><path d="M0 0 C67.04 0, 134.08 0, 219.65 0 M0 0 C56.46 0, 112.93 0, 219.65 0 M219.65 0 C219.65 10.87, 219.65 21.74, 219.65 54 M219.65 0 C219.65 16.75, 219.65 33.51, 219.65 54 M219.65 54 C167.83 54, 116 54, 0 54 M219.65 54 C172 54, 124.34 54, 0 54 M0 54 C0 43.19, 0 32.39, 0 0 M0 54 C0 32.66, 0 11.31, 0 0" stroke="#000000" stroke-width="4" fill="none"></path></g><g transform="translate(591.05859375 166.27734375) rotate(0 83 17)"><text x="83" y="27" font-family="Cascadia, Segoe UI Emoji" font-size="28px" fill="#000000" text-anchor="middle" style="white-space: pre;" direction="ltr">Залежності</text></g><g stroke-linecap="round" transform="translate(287.1162109375 156.953125) rotate(0 109.826171875 27)"><path d="M0 0 C47.81 0, 95.62 0, 219.65 0 M0 0 C78.61 0, 157.21 0, 219.65 0 M219.65 0 C219.65 10.96, 219.65 21.92, 219.65 54 M219.65 0 C219.65 16.75, 219.65 33.5, 219.65 54 M219.65 54 C174.05 54, 128.45 54, 0 54 M219.65 54 C136.94 54, 54.22 54, 0 54 M0 54 C0 36.33, 0 18.65, 0 0 M0 54 C0 38.04, 0 22.09, 0 0" stroke="#000000" stroke-width="4" fill="none"></path></g><g transform="translate(354.9423828125 166.953125) rotate(0 42 17)"><text x="42" y="27" font-family="Cascadia, Segoe UI Emoji" font-size="28px" fill="#000000" text-anchor="middle" style="white-space: pre;" direction="ltr">Таски</text></g><g stroke-linecap="round"><g transform="translate(400.2744232358924 71.174072265625) rotate(0 0.1434582703302567 42.2606201171875)"><path d="M0 0 C0.05 14.09, 0.24 70.43, 0.29 84.52 M0 0 C0.05 14.09, 0.24 70.43, 0.29 84.52" stroke="#000000" stroke-width="4" fill="none"></path></g></g><g stroke-linecap="round"><g transform="translate(396.63124945137406 70.46875) rotate(0 -137.86028835150165 42.6202392578125)"><path d="M0 0 C-45.95 14.21, -229.77 71.03, -275.72 85.24 M0 0 C-45.95 14.21, -229.77 71.03, -275.72 85.24" stroke="#000000" stroke-width="4" fill="none"></path></g></g><g stroke-linecap="round"><g transform="translate(403.7673830726384 70.46875) rotate(0 144.4237332247207 42.404296875)"><path d="M0 0 C48.14 14.13, 240.71 70.67, 288.85 84.81 M0 0 C48.14 14.13, 240.71 70.67, 288.85 84.81" stroke="#000000" stroke-width="4" fill="none"></path></g></g></svg>