<svg version="1.1" xmlns="http://www.w3.org/2000/svg" viewBox="0 0 640.515625 236.17333984375" width="1281.03125" height="472.3466796875">
  <!-- svg-source:excalidraw -->
  
  <defs>
    <style class="style-fonts">
      @font-face {
        font-family: "Virgil";
        src: url("https://excalidraw.com/Virgil.woff2");
      }
      @font-face {
        font-family: "Cascadia";
        src: url("https://excalidraw.com/Cascadia.woff2");
      }
    </style>
  </defs>
  <g stroke-linecap="round" transform="translate(10 10) rotate(0 197.326171875 32.08984375)"><path d="M0 0 C129.84 0, 259.68 0, 394.65 0 M0 0 C143.74 0, 287.48 0, 394.65 0 M394.65 0 C394.65 20.12, 394.65 40.24, 394.65 64.18 M394.65 0 C394.65 20.35, 394.65 40.7, 394.65 64.18 M394.65 64.18 C237.49 64.18, 80.33 64.18, 0 64.18 M394.65 64.18 C313.79 64.18, 232.93 64.18, 0 64.18 M0 64.18 C0 41.68, 0 19.18, 0 0 M0 64.18 C0 42.09, 0 20.01, 0 0" stroke="#000000" stroke-width="4" fill="none"></path></g><g transform="translate(69.326171875 20.08984375) rotate(0 138 22)"><text x="138" y="35" font-family="Cascadia, Segoe UI Emoji" font-size="36px" fill="#000000" text-anchor="middle" style="white-space: pre;" direction="ltr">first-project</text></g><g stroke-linecap="round" transform="translate(155.4453125 118.4921875) rotate(0 143.49609375 27)"><path d="M0 0 C81.48 0, 162.97 0, 286.99 0 M0 0 C110.77 0, 221.55 0, 286.99 0 M286.99 0 C286.99 21.48, 286.99 42.96, 286.99 54 M286.99 0 C286.99 17.79, 286.99 35.58, 286.99 54 M286.99 54 C215.8 54, 144.61 54, 0 54 M286.99 54 C179.21 54, 71.43 54, 0 54 M0 54 C0 33.37, 0 12.74, 0 0 M0 54 C0 38.56, 0 23.12, 0 0" stroke="#000000" stroke-width="4" fill="none"></path></g><g transform="translate(273.44140625 128.4921875) rotate(0 25.5 17)"><text x="25.5" y="27" font-family="Cascadia, Segoe UI Emoji" font-size="28px" fill="#000000" text-anchor="middle" style="white-space: pre;" direction="ltr">foo</text></g><g stroke-linecap="round"><g transform="translate(55.69140625 74.67431640625) rotate(0 0.005859375 36.841796875)"><path d="M0 0 C0 12.28, 0.01 61.4, 0.01 73.68 M0 0 C0 12.28, 0.01 61.4, 0.01 73.68" stroke="#000000" stroke-width="4" fill="none"></path></g></g><g stroke-linecap="round"><g transform="translate(56.91796875 148.13916015625) rotate(0 49.166015625 -0.162109375)"><path d="M0 0 C16.39 -0.05, 81.94 -0.27, 98.33 -0.32 M0 0 C16.39 -0.05, 81.94 -0.27, 98.33 -0.32" stroke="#000000" stroke-width="4" fill="none"></path></g></g><g stroke-linecap="round" transform="translate(219.07421875 191.82177734375) rotate(0 111.634765625 17.17578125)"><path d="M0 0 C87.33 0, 174.66 0, 223.27 0 M0 0 C78.84 0, 157.69 0, 223.27 0 M223.27 0 C223.27 11.73, 223.27 23.47, 223.27 34.35 M223.27 0 C223.27 11.21, 223.27 22.42, 223.27 34.35 M223.27 34.35 C167.55 34.35, 111.83 34.35, 0 34.35 M223.27 34.35 C167.02 34.35, 110.78 34.35, 0 34.35 M0 34.35 C0 24.97, 0 15.59, 0 0 M0 34.35 C0 27.25, 0 20.14, 0 0" stroke="#000000" stroke-width="4" fill="none"></path></g><g transform="translate(254.708984375 198.99755859375) rotate(0 76 10)"><text x="76" y="16" font-family="Cascadia, Segoe UI Emoji" font-size="16px" fill="#000000" text-anchor="middle" style="white-space: pre;" direction="ltr">build.gradle.kts</text></g><g stroke-linecap="round"><g transform="translate(183.8828125 173.18505859375) rotate(0 0.009765625 17.69921875)"><path d="M0 0 C0 5.9, 0.02 29.5, 0.02 35.4 M0 0 C0 5.9, 0.02 29.5, 0.02 35.4" stroke="#000000" stroke-width="4" fill="none"></path></g></g><g stroke-linecap="round"><g transform="translate(184.66796875 208.64599609375) rotate(0 17.06640625 -0.037109375)"><path d="M0 0 C5.69 -0.01, 28.44 -0.06, 34.13 -0.07 M0 0 C5.69 -0.01, 28.44 -0.06, 34.13 -0.07" stroke="#000000" stroke-width="4" fill="none"></path></g></g><g transform="translate(473.46484375 186.91552734375) rotate(0 76 19.5)"><text x="76" y="15.5" font-family="Cascadia, Segoe UI Emoji" font-size="16px" fill="#495057" text-anchor="middle" style="white-space: pre;" direction="ltr">налаштування </text><text x="76" y="35" font-family="Cascadia, Segoe UI Emoji" font-size="16px" fill="#495057" text-anchor="middle" style="white-space: pre;" direction="ltr">«збірки» проєкту</text></g><g transform="translate(451.59375 23.606201171875) rotate(0 57 19.5)"><text x="57" y="15.5" font-family="Cascadia, Segoe UI Emoji" font-size="16px" fill="#495057" text-anchor="middle" style="white-space: pre;" direction="ltr">директорія з</text><text x="57" y="35" font-family="Cascadia, Segoe UI Emoji" font-size="16px" fill="#495057" text-anchor="middle" style="white-space: pre;" direction="ltr">проєктом</text></g><g transform="translate(470.515625 125.430419921875) rotate(0 80 19.5)"><text x="80" y="15.5" font-family="Cascadia, Segoe UI Emoji" font-size="16px" fill="#495057" text-anchor="middle" style="white-space: pre;" direction="ltr">директорія модуля</text><text x="80" y="35" font-family="Cascadia, Segoe UI Emoji" font-size="16px" fill="#495057" text-anchor="middle" style="white-space: pre;" direction="ltr"> «foo»</text></g></svg>