<svg version="1.1" xmlns="http://www.w3.org/2000/svg" viewBox="0 0 667.4375 432.94677734375" width="1334.875" height="865.8935546875">
  <!-- svg-source:excalidraw -->
  
  <defs>
    <style class="style-fonts">
      @font-face {
        font-family: "Virgil";
        src: url("https://excalidraw.com/Virgil.woff2");
      }
      @font-face {
        font-family: "Cascadia";
        src: url("https://excalidraw.com/Cascadia.woff2");
      }
    </style>
  </defs>
  <g stroke-linecap="round" transform="translate(10 10) rotate(0 197.326171875 32.08984375)"><path d="M0 0 C129.84 0, 259.68 0, 394.65 0 M0 0 C143.74 0, 287.48 0, 394.65 0 M394.65 0 C394.65 20.12, 394.65 40.24, 394.65 64.18 M394.65 0 C394.65 20.35, 394.65 40.7, 394.65 64.18 M394.65 64.18 C237.49 64.18, 80.33 64.18, 0 64.18 M394.65 64.18 C313.79 64.18, 232.93 64.18, 0 64.18 M0 64.18 C0 41.68, 0 19.18, 0 0 M0 64.18 C0 42.09, 0 20.01, 0 0" stroke="#000000" stroke-width="4" fill="none"></path></g><g transform="translate(69.326171875 20.08984375) rotate(0 138 22)"><text x="138" y="35" font-family="Cascadia, Segoe UI Emoji" font-size="36px" fill="#000000" text-anchor="middle" style="white-space: pre;" direction="ltr">first-project</text></g><g stroke-linecap="round" transform="translate(155.4453125 118.4921875) rotate(0 143.49609375 27)"><path d="M0 0 C81.48 0, 162.97 0, 286.99 0 M0 0 C110.77 0, 221.55 0, 286.99 0 M286.99 0 C286.99 21.48, 286.99 42.96, 286.99 54 M286.99 0 C286.99 17.79, 286.99 35.58, 286.99 54 M286.99 54 C215.8 54, 144.61 54, 0 54 M286.99 54 C179.21 54, 71.43 54, 0 54 M0 54 C0 33.37, 0 12.74, 0 0 M0 54 C0 38.56, 0 23.12, 0 0" stroke="#000000" stroke-width="4" fill="none"></path></g><g transform="translate(273.44140625 128.4921875) rotate(0 25.5 17)"><text x="25.5" y="27" font-family="Cascadia, Segoe UI Emoji" font-size="28px" fill="#000000" text-anchor="middle" style="white-space: pre;" direction="ltr">foo</text></g><g stroke-linecap="round" transform="translate(158.6875 239.88525390625) rotate(0 143.49609375 27)"><path d="M0 0 C92.33 0, 184.67 0, 286.99 0 M0 0 C67.97 0, 135.93 0, 286.99 0 M286.99 0 C286.99 16.35, 286.99 32.71, 286.99 54 M286.99 0 C286.99 12.48, 286.99 24.96, 286.99 54 M286.99 54 C180.11 54, 73.23 54, 0 54 M286.99 54 C221.52 54, 156.06 54, 0 54 M0 54 C0 41.8, 0 29.61, 0 0 M0 54 C0 34.16, 0 14.33, 0 0" stroke="#000000" stroke-width="4" fill="none"></path></g><g transform="translate(276.68359375 249.88525390625) rotate(0 25.5 17)"><text x="25.5" y="27" font-family="Cascadia, Segoe UI Emoji" font-size="28px" fill="#000000" text-anchor="middle" style="white-space: pre;" direction="ltr">bar</text></g><g stroke-linecap="round"><g transform="translate(55.69140625 74.67431640625) rotate(0 0.005859375 36.841796875)"><path d="M0 0 C0 12.28, 0.01 61.4, 0.01 73.68 M0 0 C0 12.28, 0.01 61.4, 0.01 73.68" stroke="#000000" stroke-width="4" fill="none"></path></g></g><g stroke-linecap="round"><g transform="translate(58.46484375 148.14306640625) rotate(0 48.392578125 -0.291015625)"><path d="M0 0 C16.13 -0.1, 80.65 -0.49, 96.79 -0.58 M0 0 C16.13 -0.1, 80.65 -0.49, 96.79 -0.58" stroke="#000000" stroke-width="4" fill="none"></path></g></g><g stroke-linecap="round"><g transform="translate(55.423828125 145.32080078125) rotate(0 0.326171875 38.162109375)"><path d="M0 0 C0.11 12.72, 0.54 63.6, 0.65 76.32 M0 0 C0.11 12.72, 0.54 63.6, 0.65 76.32" stroke="#000000" stroke-width="4" fill="none"></path></g></g><g stroke-linecap="round"><g transform="translate(157.51953125 267.60400390625) rotate(0 -50.341796875 0.650390625)"><path d="M0 0 C-16.78 0.22, -83.9 1.08, -100.68 1.3 M0 0 C-16.78 0.22, -83.9 1.08, -100.68 1.3" stroke="#000000" stroke-width="4" fill="none"></path></g></g><g stroke-linecap="round"><g transform="translate(55.81640625 218.43994140625) rotate(0 0.189453125 25.31640625)"><path d="M0 0 C0.06 8.44, 0.32 42.19, 0.38 50.63 M0 0 C0.06 8.44, 0.32 42.19, 0.38 50.63" stroke="#000000" stroke-width="4" fill="none"></path></g></g><g stroke-linecap="round" transform="translate(219.07421875 191.82177734375) rotate(0 111.634765625 17.17578125)"><path d="M0 0 C87.33 0, 174.66 0, 223.27 0 M0 0 C78.84 0, 157.69 0, 223.27 0 M223.27 0 C223.27 11.73, 223.27 23.47, 223.27 34.35 M223.27 0 C223.27 11.21, 223.27 22.42, 223.27 34.35 M223.27 34.35 C167.55 34.35, 111.83 34.35, 0 34.35 M223.27 34.35 C167.02 34.35, 110.78 34.35, 0 34.35 M0 34.35 C0 24.97, 0 15.59, 0 0 M0 34.35 C0 27.25, 0 20.14, 0 0" stroke="#000000" stroke-width="4" fill="none"></path></g><g transform="translate(254.708984375 198.99755859375) rotate(0 76 10)"><text x="76" y="16" font-family="Cascadia, Segoe UI Emoji" font-size="16px" fill="#000000" text-anchor="middle" style="white-space: pre;" direction="ltr">build.gradle.kts</text></g><g stroke-linecap="round"><g transform="translate(183.8828125 173.18505859375) rotate(0 0.009765625 17.69921875)"><path d="M0 0 C0 5.9, 0.02 29.5, 0.02 35.4 M0 0 C0 5.9, 0.02 29.5, 0.02 35.4" stroke="#000000" stroke-width="4" fill="none"></path></g></g><g stroke-linecap="round"><g transform="translate(184.66796875 208.64599609375) rotate(0 17.06640625 -0.037109375)"><path d="M0 0 C5.69 -0.01, 28.44 -0.06, 34.13 -0.07 M0 0 C5.69 -0.01, 28.44 -0.06, 34.13 -0.07" stroke="#000000" stroke-width="4" fill="none"></path></g></g><g stroke-linecap="round" transform="translate(219.9375 315.13037109375) rotate(0 111.634765625 17.17578125)"><path d="M0 0 C79.39 0, 158.79 0, 223.27 0 M0 0 C76.99 0, 153.98 0, 223.27 0 M223.27 0 C223.27 12.34, 223.27 24.68, 223.27 34.35 M223.27 0 C223.27 11.66, 223.27 23.32, 223.27 34.35 M223.27 34.35 C134.73 34.35, 46.2 34.35, 0 34.35 M223.27 34.35 C150.02 34.35, 76.77 34.35, 0 34.35 M0 34.35 C0 20.83, 0 7.3, 0 0 M0 34.35 C0 24.7, 0 15.05, 0 0" stroke="#000000" stroke-width="4" fill="none"></path></g><g transform="translate(255.572265625 322.30615234375) rotate(0 76 10)"><text x="76" y="16" font-family="Cascadia, Segoe UI Emoji" font-size="16px" fill="#000000" text-anchor="middle" style="white-space: pre;" direction="ltr">build.gradle.kts</text></g><g stroke-linecap="round"><g transform="translate(185.00390625 296.49365234375) rotate(0 0.009765625 17.69921875)"><path d="M0 0 C0 5.9, 0.02 29.5, 0.02 35.4 M0 0 C0 5.9, 0.02 29.5, 0.02 35.4" stroke="#000000" stroke-width="4" fill="none"></path></g></g><g stroke-linecap="round"><g transform="translate(185.7890625 331.95458984375) rotate(0 17.06640625 -0.037109375)"><path d="M0 0 C5.69 -0.01, 28.44 -0.06, 34.13 -0.07 M0 0 C5.69 -0.01, 28.44 -0.06, 34.13 -0.07" stroke="#000000" stroke-width="4" fill="none"></path></g></g><g stroke-linecap="round" transform="translate(161.501953125 374.94677734375) rotate(0 142 24)"><path d="M0 0 C97.73 0, 195.46 0, 284 0 M0 0 C75.55 0, 151.1 0, 284 0 M284 0 C284 14.92, 284 29.83, 284 48 M284 0 C284 13.13, 284 26.26, 284 48 M284 48 C178.29 48, 72.58 48, 0 48 M284 48 C210.97 48, 137.95 48, 0 48 M0 48 C0 34.1, 0 20.21, 0 0 M0 48 C0 36.45, 0 24.9, 0 0" stroke="#000000" stroke-width="4" fill="none"></path></g><g transform="translate(191.001953125 386.94677734375) rotate(0 112.5 12)"><text x="112.5" y="20" font-family="Cascadia, Segoe UI Emoji" font-size="20px" fill="#000000" text-anchor="middle" style="white-space: pre;" direction="ltr">settings.gradle.kts</text></g><g stroke-linecap="round"><g transform="translate(161.67578125 399.39599609375) rotate(0 -52.47265625 -0.359375)"><path d="M0 0 C-17.49 -0.12, -87.45 -0.6, -104.95 -0.72 M0 0 C-17.49 -0.12, -87.45 -0.6, -104.95 -0.72" stroke="#000000" stroke-width="4" fill="none"></path></g></g><g stroke-linecap="round"><g transform="translate(56.3671875 268.46240234375) rotate(0 -0.14453125 65.10546875)"><path d="M0 0 C-0.05 21.7, -0.24 108.51, -0.29 130.21 M0 0 C-0.05 21.7, -0.24 108.51, -0.29 130.21" stroke="#000000" stroke-width="4" fill="none"></path></g></g><g transform="translate(467.4375 390.29052734375) rotate(0 95 10)"><text x="95" y="16" font-family="Cascadia, Segoe UI Emoji" font-size="16px" fill="#495057" text-anchor="middle" style="white-space: pre;" direction="ltr">Налаштування проєкту</text></g><g transform="translate(467.2265625 321.91943359375) rotate(0 90 10)"><text x="90" y="16" font-family="Cascadia, Segoe UI Emoji" font-size="16px" fill="#495057" text-anchor="middle" style="white-space: pre;" direction="ltr">Налаштування модулю</text></g><g transform="translate(467.58203125 199.27880859375) rotate(0 90 10)"><text x="90" y="16" font-family="Cascadia, Segoe UI Emoji" font-size="16px" fill="#495057" text-anchor="middle" style="white-space: pre;" direction="ltr">Налаштування модулю</text></g><g transform="translate(433.09375 23.606201171875) rotate(0 75.5 19.5)"><text x="75.5" y="15.5" font-family="Cascadia, Segoe UI Emoji" font-size="16px" fill="#495057" text-anchor="middle" style="white-space: pre;" direction="ltr">назва директорії</text><text x="75.5" y="35" font-family="Cascadia, Segoe UI Emoji" font-size="16px" fill="#495057" text-anchor="middle" style="white-space: pre;" direction="ltr">з проєктом</text></g><g transform="translate(468.09375 125.430419921875) rotate(0 85 19.5)"><text x="85" y="15.5" font-family="Cascadia, Segoe UI Emoji" font-size="16px" fill="#495057" text-anchor="middle" style="white-space: pre;" direction="ltr">директорія модуля </text><text x="85" y="35" font-family="Cascadia, Segoe UI Emoji" font-size="16px" fill="#495057" text-anchor="middle" style="white-space: pre;" direction="ltr">«foo»</text></g><g transform="translate(469.0625 246.242919921875) rotate(0 85 19.5)"><text x="85" y="15.5" font-family="Cascadia, Segoe UI Emoji" font-size="16px" fill="#495057" text-anchor="middle" style="white-space: pre;" direction="ltr">директорія модуля </text><text x="85" y="35" font-family="Cascadia, Segoe UI Emoji" font-size="16px" fill="#495057" text-anchor="middle" style="white-space: pre;" direction="ltr">«bar»</text></g></svg>