<svg version="1.1" xmlns="http://www.w3.org/2000/svg" viewBox="0 0 770.638671875 428.76025390625" width="1541.27734375" height="857.5205078125">
  <!-- svg-source:excalidraw -->
  
  <defs>
    <style class="style-fonts">
      @font-face {
        font-family: "Virgil";
        src: url("https://excalidraw.com/Virgil.woff2");
      }
      @font-face {
        font-family: "Cascadia";
        src: url("https://excalidraw.com/Cascadia.woff2");
      }
    </style>
  </defs>
  <g stroke-linecap="round" transform="translate(162.076171875 10) rotate(0 197.326171875 32.08984375)"><path d="M0 0 C129.84 0, 259.68 0, 394.65 0 M0 0 C143.74 0, 287.48 0, 394.65 0 M394.65 0 C394.65 20.12, 394.65 40.24, 394.65 64.18 M394.65 0 C394.65 20.35, 394.65 40.7, 394.65 64.18 M394.65 64.18 C237.49 64.18, 80.33 64.18, 0 64.18 M394.65 64.18 C313.79 64.18, 232.93 64.18, 0 64.18 M0 64.18 C0 41.68, 0 19.18, 0 0 M0 64.18 C0 42.09, 0 20.01, 0 0" stroke="#000000" stroke-width="4" fill="none"></path></g><g transform="translate(294.90234375 20.08984375) rotate(0 64.5 22)"><text x="64.5" y="35" font-family="Cascadia, Segoe UI Emoji" font-size="36px" fill="#000000" text-anchor="middle" style="white-space: pre;" direction="ltr">Проєкт</text></g><g stroke-linecap="round" transform="translate(307.779296875 118.4921875) rotate(0 143.49609375 27)"><path d="M0 0 C81.48 0, 162.97 0, 286.99 0 M0 0 C110.77 0, 221.55 0, 286.99 0 M286.99 0 C286.99 21.48, 286.99 42.96, 286.99 54 M286.99 0 C286.99 17.79, 286.99 35.58, 286.99 54 M286.99 54 C215.8 54, 144.61 54, 0 54 M286.99 54 C179.21 54, 71.43 54, 0 54 M0 54 C0 33.37, 0 12.74, 0 0 M0 54 C0 38.56, 0 23.12, 0 0" stroke="#000000" stroke-width="4" fill="none"></path></g><g transform="translate(384.775390625 128.4921875) rotate(0 66.5 17)"><text x="66.5" y="27" font-family="Cascadia, Segoe UI Emoji" font-size="28px" fill="#000000" text-anchor="middle" style="white-space: pre;" direction="ltr">Модуль А</text></g><g stroke-linecap="round" transform="translate(310.509765625 239.88525390625) rotate(0 143.49609375 27)"><path d="M0 0 C92.33 0, 184.67 0, 286.99 0 M0 0 C67.97 0, 135.93 0, 286.99 0 M286.99 0 C286.99 16.35, 286.99 32.71, 286.99 54 M286.99 0 C286.99 12.48, 286.99 24.96, 286.99 54 M286.99 54 C180.11 54, 73.23 54, 0 54 M286.99 54 C221.52 54, 156.06 54, 0 54 M0 54 C0 41.8, 0 29.61, 0 0 M0 54 C0 34.16, 0 14.33, 0 0" stroke="#000000" stroke-width="4" fill="none"></path></g><g transform="translate(387.505859375 249.88525390625) rotate(0 66.5 17)"><text x="66.5" y="27" font-family="Cascadia, Segoe UI Emoji" font-size="28px" fill="#000000" text-anchor="middle" style="white-space: pre;" direction="ltr">Модуль Б</text></g><g stroke-linecap="round"><g transform="translate(207.767578125 74.67431640625) rotate(0 0.005859375 36.841796875)"><path d="M0 0 C0 12.28, 0.01 61.4, 0.01 73.68 M0 0 C0 12.28, 0.01 61.4, 0.01 73.68" stroke="#000000" stroke-width="4" fill="none"></path></g></g><g stroke-linecap="round"><g transform="translate(210.541015625 148.14306640625) rotate(0 48.392578125 -0.291015625)"><path d="M0 0 C16.13 -0.1, 80.65 -0.49, 96.79 -0.58 M0 0 C16.13 -0.1, 80.65 -0.49, 96.79 -0.58" stroke="#000000" stroke-width="4" fill="none"></path></g></g><g stroke-linecap="round"><g transform="translate(207.5 145.32080078125) rotate(0 0.326171875 38.162109375)"><path d="M0 0 C0.11 12.72, 0.54 63.6, 0.65 76.32 M0 0 C0.11 12.72, 0.54 63.6, 0.65 76.32" stroke="#000000" stroke-width="4" fill="none"></path></g></g><g stroke-linecap="round"><g transform="translate(309.595703125 267.60400390625) rotate(0 -50.341796875 0.650390625)"><path d="M0 0 C-16.78 0.22, -83.9 1.08, -100.68 1.3 M0 0 C-16.78 0.22, -83.9 1.08, -100.68 1.3" stroke="#000000" stroke-width="4" fill="none"></path></g></g><g stroke-linecap="round"><g transform="translate(207.892578125 218.43994140625) rotate(0 0.189453125 25.31640625)"><path d="M0 0 C0.06 8.44, 0.32 42.19, 0.38 50.63 M0 0 C0.06 8.44, 0.32 42.19, 0.38 50.63" stroke="#000000" stroke-width="4" fill="none"></path></g></g><g stroke-linecap="round" transform="translate(220.947265625 373.83837890625) rotate(0 166.859375 22.4609375)"><path d="M0 0 C70.98 0, 141.96 0, 333.72 0 M0 0 C94.74 0, 189.48 0, 333.72 0 M333.72 0 C333.72 15.09, 333.72 30.19, 333.72 44.92 M333.72 0 C333.72 14.44, 333.72 28.88, 333.72 44.92 M333.72 44.92 C241.18 44.92, 148.64 44.92, 0 44.92 M333.72 44.92 C213.92 44.92, 94.12 44.92, 0 44.92 M0 44.92 C0 35.33, 0 25.74, 0 0 M0 44.92 C0 29.05, 0 13.17, 0 0" stroke="#000000" stroke-width="4" fill="none"></path></g><g transform="translate(269.806640625 384.29931640625) rotate(0 118 12)"><text x="118" y="20" font-family="Cascadia, Segoe UI Emoji" font-size="20px" fill="#000000" text-anchor="middle" style="white-space: pre;" direction="ltr">Налаштування проєкту</text></g><g stroke-linecap="round"><g transform="translate(555.345703125 396.20458984375) rotate(0 102.392578125 0.146484375)"><path d="M0 0 C34.13 0.05, 170.65 0.24, 204.79 0.29 M0 0 C34.13 0.05, 170.65 0.24, 204.79 0.29" stroke="#000000" stroke-width="4" fill="none"></path></g></g><g stroke-linecap="round"><g transform="translate(558.330078125 41.14208984375) rotate(0 100.0859375 -0.505859375)"><path d="M0 0 C33.36 -0.17, 166.81 -0.84, 200.17 -1.01 M0 0 C33.36 -0.17, 166.81 -0.84, 200.17 -1.01" stroke="#000000" stroke-width="4" fill="none"></path></g></g><g stroke-linecap="round"><g transform="translate(758.244140625 39.87255859375) rotate(0 1.197265625 178.2265625)"><path d="M0 0 C0.4 59.41, 2 297.04, 2.39 356.45 M0 0 C0.4 59.41, 2 297.04, 2.39 356.45" stroke="#000000" stroke-width="4" fill="none"></path></g></g><g stroke-linecap="round"><g transform="translate(13.57421875 396.41357421875) rotate(0 102.392578125 0.146484375)"><path d="M0 0 C34.13 0.05, 170.65 0.24, 204.79 0.29 M0 0 C34.13 0.05, 170.65 0.24, 204.79 0.29" stroke="#000000" stroke-width="4" fill="none"></path></g></g><g stroke-linecap="round"><g transform="translate(10.412109375 41.29638671875) rotate(0 75.96875 0.2890625)"><path d="M0 0 C25.32 0.1, 126.61 0.48, 151.94 0.58 M0 0 C25.32 0.1, 126.61 0.48, 151.94 0.58" stroke="#000000" stroke-width="4" fill="none"></path></g></g><g stroke-linecap="round"><g transform="translate(10 41.57177734375) rotate(0 1.455078125 177.083984375)"><path d="M0 0 C0.49 59.03, 2.43 295.14, 2.91 354.17 M0 0 C0.49 59.03, 2.43 295.14, 2.91 354.17" stroke="#000000" stroke-width="4" fill="none"></path></g></g><g stroke-linecap="round" transform="translate(371.150390625 191.82177734375) rotate(0 111.634765625 17.17578125)"><path d="M0 0 C87.33 0, 174.66 0, 223.27 0 M0 0 C78.84 0, 157.69 0, 223.27 0 M223.27 0 C223.27 11.73, 223.27 23.47, 223.27 34.35 M223.27 0 C223.27 11.21, 223.27 22.42, 223.27 34.35 M223.27 34.35 C167.55 34.35, 111.83 34.35, 0 34.35 M223.27 34.35 C167.02 34.35, 110.78 34.35, 0 34.35 M0 34.35 C0 24.97, 0 15.59, 0 0 M0 34.35 C0 27.25, 0 20.14, 0 0" stroke="#000000" stroke-width="4" fill="none"></path></g><g transform="translate(392.78515625 198.99755859375) rotate(0 90 10)"><text x="90" y="16" font-family="Cascadia, Segoe UI Emoji" font-size="16px" fill="#000000" text-anchor="middle" style="white-space: pre;" direction="ltr">Налаштування модулю</text></g><g stroke-linecap="round"><g transform="translate(335.958984375 173.18505859375) rotate(0 0.009765625 17.69921875)"><path d="M0 0 C0 5.9, 0.02 29.5, 0.02 35.4 M0 0 C0 5.9, 0.02 29.5, 0.02 35.4" stroke="#000000" stroke-width="4" fill="none"></path></g></g><g stroke-linecap="round"><g transform="translate(336.744140625 208.64599609375) rotate(0 17.06640625 -0.037109375)"><path d="M0 0 C5.69 -0.01, 28.44 -0.06, 34.13 -0.07 M0 0 C5.69 -0.01, 28.44 -0.06, 34.13 -0.07" stroke="#000000" stroke-width="4" fill="none"></path></g></g><g stroke-linecap="round" transform="translate(372.013671875 315.13037109375) rotate(0 111.634765625 17.17578125)"><path d="M0 0 C79.39 0, 158.79 0, 223.27 0 M0 0 C76.99 0, 153.98 0, 223.27 0 M223.27 0 C223.27 12.34, 223.27 24.68, 223.27 34.35 M223.27 0 C223.27 11.66, 223.27 23.32, 223.27 34.35 M223.27 34.35 C134.73 34.35, 46.2 34.35, 0 34.35 M223.27 34.35 C150.02 34.35, 76.77 34.35, 0 34.35 M0 34.35 C0 20.83, 0 7.3, 0 0 M0 34.35 C0 24.7, 0 15.05, 0 0" stroke="#000000" stroke-width="4" fill="none"></path></g><g transform="translate(393.6484375 322.30615234375) rotate(0 90 10)"><text x="90" y="16" font-family="Cascadia, Segoe UI Emoji" font-size="16px" fill="#000000" text-anchor="middle" style="white-space: pre;" direction="ltr">Налаштування модулю</text></g><g stroke-linecap="round"><g transform="translate(337.080078125 296.49365234375) rotate(0 0.009765625 17.69921875)"><path d="M0 0 C0 5.9, 0.02 29.5, 0.02 35.4 M0 0 C0 5.9, 0.02 29.5, 0.02 35.4" stroke="#000000" stroke-width="4" fill="none"></path></g></g><g stroke-linecap="round"><g transform="translate(337.865234375 331.95458984375) rotate(0 17.06640625 -0.037109375)"><path d="M0 0 C5.69 -0.01, 28.44 -0.06, 34.13 -0.07 M0 0 C5.69 -0.01, 28.44 -0.06, 34.13 -0.07" stroke="#000000" stroke-width="4" fill="none"></path></g></g></svg>