<svg version="1.1" xmlns="http://www.w3.org/2000/svg" viewBox="0 0 801.1263163800156 567.492919921875" width="1602.2526327600312" height="1134.98583984375">
  <!-- svg-source:excalidraw -->
  
  <defs>
    <style>
      @font-face {
        font-family: "Virgil";
        src: url("https://excalidraw.com/Virgil.woff2");
      }
      @font-face {
        font-family: "Cascadia";
        src: url("https://excalidraw.com/Cascadia.woff2");
      }
    </style>
  </defs>
  <g stroke-linecap="round" transform="translate(10 179.828125) rotate(0 135.806640625 34.02734375)"><path d="M-0.24 -0.05 C83.28 0.39, 165.09 1.91, 272.78 0.62 M-0.56 -0.37 C63.73 1.43, 126.44 0.42, 272.27 -0.28 M270.34 -0.6 C272.1 21.65, 273.79 39.83, 270.97 66.06 M270.77 0.36 C271.76 22.52, 272.02 46.48, 271.34 67.78 M272.16 69.56 C179.18 65.53, 86.67 66.93, 1.52 68.65 M271.76 68.06 C198.85 66.58, 128.23 66.19, 0.65 67.58 M-0.96 67.68 C-1.08 52.46, 0.18 42.12, 0.77 -0.49 M0.82 68.82 C-0.98 53.87, 0.42 39.11, -0.96 0.03" stroke="#000000" stroke-width="1" fill="none"></path></g><g transform="translate(79.17578125 190.75) rotate(0 75 22)"><text x="0" y="35" font-family="Cascadia, Segoe UI Emoji" font-size="36px" fill="#000000" text-anchor="start" style="white-space: pre;" direction="ltr">Project</text></g><g stroke-linecap="round" transform="translate(41.51171875 10.2421875) rotate(0 106 22.5)"><path d="M0.83 0.34 C74.06 -0.79, 150.07 0.76, 212.59 -0.82 M-0.23 -0.83 C59.05 -0.33, 119.24 -1.26, 211.3 0.1 M213.22 -1.2 C212.61 17.24, 210.15 33.59, 211.23 46.97 M212.16 0.63 C211.47 11.39, 211.46 22.28, 212.13 45.43 M210.91 44.65 C166.47 46.44, 123.18 43.92, 0.17 46.38 M212.37 45.4 C168.07 44.96, 125 44.12, -0.62 44.4 M-0.88 43.48 C-0.39 32.79, 0.27 24.24, -1.93 -0.98 M0.65 44.81 C0.04 32.36, 0.25 20.69, 0.86 0.59" stroke="#000000" stroke-width="1" fill="none"></path></g><g transform="translate(67.01171875 22.7421875) rotate(0 80.5 10)"><text x="80.5" y="16" font-family="Cascadia, Segoe UI Emoji" font-size="16px" fill="#000000" text-anchor="middle" style="white-space: pre;" direction="ltr">math.calculations</text></g><g stroke-linecap="round" transform="translate(33.27734375 350.59765625) rotate(0 106 22.5)"><path d="M-0.64 -0.22 C45.69 -0.58, 92.98 -1.06, 211.09 -0.95 M0.17 -0.56 C56.56 -0.2, 113.78 -0.44, 211.71 0.42 M210.33 -1.07 C210.58 8.85, 211.04 17.15, 210.36 45.37 M211.9 0.53 C213 16.67, 212.09 33.73, 211.52 44.15 M210.91 43.92 C152.2 46.59, 93.14 43.62, 0.36 43.87 M211.72 44.44 C150.04 46.07, 88 45.24, -0.78 45.22 M-0.58 45.81 C-0.22 28.25, 0.66 15.46, 1.64 0.93 M0.91 45.91 C-1 31.86, 0.28 16.18, 0.76 0.56" stroke="#000000" stroke-width="1" fill="none"></path></g><g transform="translate(44.27734375 363.09765625) rotate(0 95 10)"><text x="95" y="16" font-family="Cascadia, Segoe UI Emoji" font-size="16px" fill="#000000" text-anchor="middle" style="white-space: pre;" direction="ltr">root (empty package)</text></g><g stroke-linecap="round"><g transform="translate(255.53125 35.421875) rotate(0 107.65648467279965 0.33710114107481104)"><path d="M-0.57 -1.05 C35.45 -0.88, 179.74 0.08, 215.88 0.07 M1.34 1.01 C37.25 1.47, 179.36 1.89, 215.11 1.67" stroke="#000000" stroke-width="1" fill="none"></path></g><g transform="translate(255.53125 35.421875) rotate(0 107.65648467279965 0.33710114107481104)"><path d="M185.17 12.52 C195.08 10.39, 201.05 6.83, 214.92 0.17 M187.6 11.04 C196.38 9.11, 205.48 5.77, 214.92 0.8" stroke="#000000" stroke-width="1" fill="none"></path></g><g transform="translate(255.53125 35.421875) rotate(0 107.65648467279965 0.33710114107481104)"><path d="M185.16 -8 C194.9 -4.4, 200.88 -2.22, 214.92 0.17 M187.58 -9.48 C196.3 -4.69, 205.41 -1.3, 214.92 0.8" stroke="#000000" stroke-width="1" fill="none"></path></g></g><g stroke-linecap="round" transform="translate(473.78125 10) rotate(0 105.736328125 27.884765625)"><path d="M1.45 0.31 C78.86 0.75, 157.56 -0.32, 210.2 1.7 M0.17 -0.74 C64.82 -1.89, 128.8 -0.23, 210.76 -0.8 M210.9 -1.26 C210.78 15.45, 210.41 35.79, 212.9 55.2 M212.46 -0.46 C212.11 11.45, 211.74 23.4, 211.9 56.69 M210.04 54.34 C150.67 57.52, 86.23 56.33, -0.21 56.03 M211.64 56.52 C144.62 57.07, 76.17 57.22, 0.04 55.49 M0.65 57.13 C-0.54 41.54, -0.91 29.96, 0.11 1.31 M-0.18 56.32 C-0.38 37.03, 0.91 16.59, -0.37 -0.05" stroke="#000000" stroke-width="1" fill="none"></path></g><g transform="translate(514.017578125 25.884765625) rotate(0 65.5 12)"><text x="65.5" y="20" font-family="Cascadia, Segoe UI Emoji" font-size="20px" fill="#000000" text-anchor="middle" style="white-space: pre;" direction="ltr">Function.kt</text></g><g stroke-linecap="round"><g transform="translate(582.2265625 69.34765625) rotate(0 -1.6905655767768621 34.38832443905063)"><path d="M0.32 0.18 C-0.41 11.86, -3.21 57.91, -3.7 69.55 M-0.97 -0.77 C-1.4 10.57, -1.16 56.08, -1.56 67.54" stroke="#000000" stroke-width="1" fill="none"></path></g><g transform="translate(582.2265625 69.34765625) rotate(0 -1.6905655767768621 34.38832443905063)"><path d="M-11.17 37.4 C-7.72 49.21, -3.44 59.82, -0.92 66.54 M-11.17 40.16 C-10.05 45.56, -6.66 50.67, -1.24 66.67" stroke="#000000" stroke-width="1" fill="none"></path></g><g transform="translate(582.2265625 69.34765625) rotate(0 -1.6905655767768621 34.38832443905063)"><path d="M9.35 37.66 C5.54 49.43, 2.56 59.95, -0.92 66.54 M9.35 40.42 C6.06 45.57, 5.05 50.62, -1.24 66.67" stroke="#000000" stroke-width="1" fill="none"></path></g></g><g stroke-linecap="round" transform="translate(499.49609375 150.15234375) rotate(0 80.634765625 18.08203125)"><path d="M-0.68 0.03 C60.92 0.81, 123.23 2.37, 161.1 -0.73 M-0.65 -0.17 C37.68 0.4, 76.22 0.67, 162.13 0.55 M162.1 -0.92 C161.84 11.7, 160.23 22.96, 161.51 35.67 M161.81 0.73 C161.01 11.72, 161.18 24.25, 160.55 35.36 M162.69 36.41 C104.33 34.27, 51.8 36.27, -1.87 37.45 M161.16 35.99 C122.06 35.64, 83.94 36.5, -0.83 36.64 M1.52 35.43 C-0.88 27.43, -0.8 20.23, -0.29 -0.34 M-0.57 35.24 C0.86 23.11, 0.04 9.66, 0.46 0.16" stroke="#000000" stroke-width="1" fill="none"></path></g><g transform="translate(522.630859375 158.234375) rotate(0 57.5 10)"><text x="57.5" y="16" font-family="Cascadia, Segoe UI Emoji" font-size="16px" fill="#000000" text-anchor="middle" style="white-space: pre;" direction="ltr">f(x: Double)</text></g><g stroke-linecap="round"><g transform="translate(247.1875 380.8671875) rotate(0 125.72602015076205 -1.9948211457580385)"><path d="M0.92 0.16 C42.71 -0.34, 209.59 -3.51, 251.51 -4.15 M-0.06 -0.81 C41.53 -1.04, 208.61 -2.63, 250.66 -2.88" stroke="#000000" stroke-width="1" fill="none"></path></g><g transform="translate(247.1875 380.8671875) rotate(0 125.72602015076205 -1.9948211457580385)"><path d="M222.81 7.91 C231.98 5.47, 243.01 -0.85, 252.6 -2.97 M221.6 8.13 C230.05 4.91, 239.35 2.38, 249.9 -3.86" stroke="#000000" stroke-width="1" fill="none"></path></g><g transform="translate(247.1875 380.8671875) rotate(0 125.72602015076205 -1.9948211457580385)"><path d="M222.65 -12.61 C231.67 -7.62, 242.76 -6.5, 252.6 -2.97 M221.43 -12.39 C229.93 -9.71, 239.27 -6.34, 249.9 -3.86" stroke="#000000" stroke-width="1" fill="none"></path></g></g><g stroke-linecap="round" transform="translate(502.552734375 349.326171875) rotate(0 105.736328125 27.884765625)"><path d="M0.82 0.37 C82.09 -1.14, 167.41 0.2, 209.89 1.28 M0.05 0.55 C50.8 0.55, 100.69 0.86, 212.2 0.16 M213.29 1.2 C210.05 10.55, 213.06 23.71, 212.45 55.27 M210.68 0.93 C211.51 11.37, 212.26 23.76, 210.95 56.43 M209.85 56.95 C154.59 55.11, 99.43 53.9, 1.45 56.88 M211.08 54.98 C129.91 55.85, 47.38 55.99, 0.19 55.24 M-1.17 54.57 C0.62 39.96, 0.21 25.82, -1.03 0.23 M-0.91 55.77 C0.16 37.43, -0.12 19.2, -0.9 0.26" stroke="#000000" stroke-width="1" fill="none"></path></g><g transform="translate(566.2890625 365.2109375) rotate(0 42 12)"><text x="42" y="20" font-family="Cascadia, Segoe UI Emoji" font-size="20px" fill="#000000" text-anchor="middle" style="white-space: pre;" direction="ltr">Main.kt</text></g><g stroke-linecap="round"><g transform="translate(612.09375 407.861328125) rotate(0 1.0009284710640713 54.04479029771872)"><path d="M1.17 1 C1.27 18.75, 1.74 90.08, 1.69 107.61 M0.33 0.48 C0.2 18.42, 0.97 88.2, 0.88 106" stroke="#000000" stroke-width="1" fill="none"></path></g><g transform="translate(612.09375 407.861328125) rotate(0 1.0009284710640713 54.04479029771872)"><path d="M-7.82 78.31 C-3.55 87.79, -1.9 99.53, 0.33 104.91 M-9.3 77.57 C-6.53 89.18, -2.22 99.68, 1.6 105.1" stroke="#000000" stroke-width="1" fill="none"></path></g><g transform="translate(612.09375 407.861328125) rotate(0 1.0009284710640713 54.04479029771872)"><path d="M12.71 78.23 C8.97 87.94, 2.61 99.71, 0.33 104.91 M11.22 77.49 C5.81 88.97, 1.93 99.51, 1.6 105.1" stroke="#000000" stroke-width="1" fill="none"></path></g></g><g stroke-linecap="round" transform="translate(521.9375 521.578857421875) rotate(0 94.61328125 17.95703125)"><path d="M0.95 -0.31 C69.07 -1.42, 141.86 -0.3, 191.11 -0.46 M0.28 0.31 C56.95 0.73, 112.34 2.16, 189.84 0.44 M187.31 0.78 C189.72 9.38, 188.11 16.87, 188.49 37.82 M189.19 0.13 C189.15 8.14, 188.97 17.49, 188.37 36.46 M190.7 36.97 C151.7 34.03, 112.5 37.27, -0.21 37.55 M189.81 36.72 C142.88 34.87, 94.85 35.7, -0.85 35.27 M-1.14 37.37 C1.1 25.98, -1.58 17.7, -1.37 0.3 M0.87 36.54 C-1 27, -0.29 18, 0.9 -0.17" stroke="#000000" stroke-width="1" fill="none"></path></g><g transform="translate(587.55078125 529.535888671875) rotate(0 29 10)"><text x="29" y="16" font-family="Cascadia, Segoe UI Emoji" font-size="16px" fill="#000000" text-anchor="middle" style="white-space: pre;" direction="ltr">main()</text></g><g stroke-linecap="round"><g transform="translate(144.73828125 180.600830078125) rotate(0 -0.7549650016054557 -60.88138615248725)"><path d="M-0.33 -1.17 C-0.8 -21.75, -1.94 -102.52, -2.18 -122.59 M1.7 0.83 C1 -19.65, -2.53 -100.46, -3.21 -121.18" stroke="#000000" stroke-width="1" fill="none"></path></g><g transform="translate(144.73828125 180.600830078125) rotate(0 -0.7549650016054557 -60.88138615248725)"><path d="M6.18 -93.67 C3.51 -102.83, 1.2 -111.32, -1.96 -122.3 M8.41 -93.53 C5.82 -98.4, 2.89 -106.1, -3.7 -120.58" stroke="#000000" stroke-width="1" fill="none"></path></g><g transform="translate(144.73828125 180.600830078125) rotate(0 -0.7549650016054557 -60.88138615248725)"><path d="M-14.32 -92.87 C-9.74 -102.26, -4.8 -111.03, -1.96 -122.3 M-12.1 -92.73 C-10.28 -97.76, -8.8 -105.63, -3.7 -120.58" stroke="#000000" stroke-width="1" fill="none"></path></g></g><g stroke-linecap="round"><g transform="translate(145.41796875 252.171142578125) rotate(0 0.2566251770034569 49.24236724115909)"><path d="M-0.44 -0.8 C-0.54 15.62, -0.26 82.57, -0.01 99.29 M1.53 1.39 C1.21 17.43, -0.89 81.59, -1.02 97.65" stroke="#000000" stroke-width="1" fill="none"></path></g><g transform="translate(145.41796875 252.171142578125) rotate(0 0.2566251770034569 49.24236724115909)"><path d="M-11.99 69.05 C-5.56 80.79, -1.81 88.73, -2.61 95.74 M-9.92 69.84 C-6.52 81.12, -3.28 92.95, -0.86 96.71" stroke="#000000" stroke-width="1" fill="none"></path></g><g transform="translate(145.41796875 252.171142578125) rotate(0 0.2566251770034569 49.24236724115909)"><path d="M8.52 69.5 C7.77 81.01, 4.33 88.79, -2.61 95.74 M10.6 70.3 C5.79 81.38, 0.83 93.03, -0.86 96.71" stroke="#000000" stroke-width="1" fill="none"></path></g></g><g stroke-linecap="round"><g transform="translate(663.92578125 167.1181640625) rotate(0 63.2593310452246 106.04839892195538)"><path d="M0.51 0.48 C21.25 16.95, 115.98 62.58, 124.16 97.9 C132.34 133.23, 61.75 193.42, 49.61 212.41 M-0.68 -0.31 C20.47 15.92, 117.67 61.17, 126.45 96.33 C135.23 131.48, 64.39 191.12, 51.99 210.6" stroke="#000000" stroke-width="1" fill="none"></path></g><g transform="translate(663.92578125 167.1181640625) rotate(0 63.2593310452246 106.04839892195538)"><path d="M30.5 6.05 C23.49 3.97, 15.44 5, 1.3 0.35 M28.87 7.78 C22.4 6.04, 14.9 4.01, 0.85 0.08" stroke="#000000" stroke-width="1" fill="none"></path></g><g transform="translate(663.92578125 167.1181640625) rotate(0 63.2593310452246 106.04839892195538)"><path d="M19.23 23.2 C15.43 16.37, 10.47 12.71, 1.3 0.35 M17.6 24.93 C13.91 19.08, 9.09 12.97, 0.85 0.08" stroke="#000000" stroke-width="1" fill="none"></path></g></g></svg>