<svg version="1.1" xmlns="http://www.w3.org/2000/svg" viewBox="0 0 623.31640625 313.150390625" width="623.31640625" height="313.150390625">
  <!-- svg-source:excalidraw -->
  
  <defs>
    <style>
      @font-face {
        font-family: "Virgil";
        src: url("https://excalidraw.com/Virgil.woff2");
      }
      @font-face {
        font-family: "Cascadia";
        src: url("https://excalidraw.com/Cascadia.woff2");
      }
    </style>
  </defs>
  <g stroke-linecap="round" transform="translate(10 13.50927734375) rotate(0 114.57421875 29.3203125)"><path d="M-1.25 1.24 C66 2.71, 131.22 2.34, 227.54 -0.54 M0.01 -0.35 C50.59 -1.63, 100.77 -2.12, 229.57 0.69 M230.31 1.76 C229.44 12.15, 228.36 29.15, 228.97 60.5 M229.72 0.27 C229.04 14.95, 229.24 28, 229.9 58.12 M229.81 58.97 C172.81 57.03, 116.42 56.54, 0.62 60.01 M228.58 58.18 C151.52 61.24, 74.24 61.01, -0.56 58.74 M-1.42 57.75 C0.67 41.14, 0.34 27.69, 1.92 -0.4 M-0.07 58.28 C-1.06 42.05, 0.06 26.67, -0.27 0.07" stroke="#000000" stroke-width="1" fill="none"></path></g><g transform="translate(54.16796875 21.11865234375) rotate(0 75 22)"><text x="0" y="35" font-family="Cascadia, Segoe UI Emoji" font-size="36px" fill="#000000" text-anchor="start" style="white-space: pre;" direction="ltr">Main.kt</text></g><g stroke-linecap="round" transform="translate(40.6875 131.84521484375) rotate(0 81.5 28)"><path d="M0.43 -1.41 C65.04 0.62, 131.52 -0.33, 162.97 -0.64 M-0.73 0.64 C40.17 0.98, 79.7 0.86, 162.47 -0.59 M164.76 1.8 C161.57 19.57, 163.36 35.93, 161.69 56.92 M163.92 0.66 C161.98 19.1, 161.97 36.99, 162.51 56.63 M164.64 56.23 C122.37 53.39, 83.49 55.36, 0.47 57.58 M163.71 56.97 C113.95 55.88, 64.45 55.85, 0.65 55.2 M1.36 54.5 C0.28 38.65, 2.01 23.93, 1.09 -1.17 M-0.22 55.25 C0.06 38.5, -0.1 20.23, 0.78 0.12" stroke="#000000" stroke-width="1" fill="none"></path></g><g transform="translate(68.6875 137.84521484375) rotate(0 53.5 22)"><text x="53.5" y="35" font-family="Cascadia, Segoe UI Emoji" font-size="36px" fill="#000000" text-anchor="middle" style="white-space: pre;" direction="ltr">foo()</text></g><g stroke-linecap="round"><g transform="translate(128.48926508476325 74.18359375) rotate(0 -1.7628334781986155 28.38044039117176)"><path d="M0.81 0.03 C0.3 9.55, -3.16 48.31, -3.99 57.76 M-0.23 -1 C-0.71 8.16, -3.63 46.39, -4.33 56.24" stroke="#000000" stroke-width="1" fill="none"></path></g><g transform="translate(128.48926508476325 74.18359375) rotate(0 -1.7628334781986155 28.38044039117176)"><path d="M-12.01 30.8 C-8.29 36.46, -8.33 42.36, -4 57.7 M-11.57 29.58 C-10.02 36.51, -7.66 43.96, -3.43 55.63" stroke="#000000" stroke-width="1" fill="none"></path></g><g transform="translate(128.48926508476325 74.18359375) rotate(0 -1.7628334781986155 28.38044039117176)"><path d="M7.38 32.24 C6.81 37.7, 2.5 43.29, -4 57.7 M7.82 31.01 C3.82 37.66, 0.64 44.69, -3.43 55.63" stroke="#000000" stroke-width="1" fill="none"></path></g></g><g stroke-linecap="round" transform="translate(67.71484375 231.14453125) rotate(0 50.58984375 28)"><path d="M-0.27 -1.67 C34.52 -0.73, 66.31 -0.45, 102.88 0.79 M0.64 0.52 C29.47 0.69, 60.62 0.62, 100.55 -0.19 M100.74 -1.01 C101.98 18.6, 102.43 39.82, 99.53 55.76 M100.85 -0.75 C101.89 21.48, 101.28 45.11, 100.3 56.39 M100.49 57.15 C70.68 54.81, 38.99 55.66, -0.14 55.91 M101.99 56.53 C63.1 55.49, 24.88 55.79, 0.57 55.03 M1.13 54.37 C0.36 35.78, 0.46 16.88, 0.46 0.8 M0.93 56.5 C-0.07 40.1, -0.63 25.17, 0.82 0.85" stroke="#000000" stroke-width="1" fill="none"></path></g><g transform="translate(76.3046875 242.14453125) rotate(0 42 17)"><text x="42" y="27" font-family="Cascadia, Segoe UI Emoji" font-size="28px" fill="#000000" text-anchor="middle" style="white-space: pre;" direction="ltr">bar()</text></g><g stroke-linecap="round"><g transform="translate(116.5234375 190.3984375) rotate(0 0.20622718774200166 22.027883573994018)"><path d="M0.74 -0.77 C0.78 6.65, 0.7 37.35, 0.57 44.83 M-0.33 1.43 C-0.39 8.45, 0.14 35.54, 0.08 42.83" stroke="#000000" stroke-width="1" fill="none"></path></g><g transform="translate(116.5234375 190.3984375) rotate(0 0.20622718774200166 22.027883573994018)"><path d="M-8.98 23.38 C-4.74 29.05, -3.43 37.1, 1.3 43.91 M-7.99 21.04 C-5.36 26.26, -4.01 31.68, 0.79 42.56" stroke="#000000" stroke-width="1" fill="none"></path></g><g transform="translate(116.5234375 190.3984375) rotate(0 0.20622718774200166 22.027883573994018)"><path d="M6.28 23.27 C5.57 29.07, 1.93 37.16, 1.3 43.91 M7.26 20.94 C6.59 26.11, 4.64 31.56, 0.79 42.56" stroke="#000000" stroke-width="1" fill="none"></path></g></g><g stroke-linecap="round"><g transform="translate(239.66015625 45.44921875) rotate(0 89.39706314739038 1.2373674469956768)"><path d="M0.63 0.68 C3.57 0.58, -13.19 0.2, 16.95 0.27 C47.08 0.34, 154.1 0.93, 181.44 1.09 M-0.5 -0.01 C2.3 -0.05, -14.45 0.95, 15.78 1.36 C46.01 1.78, 153.31 2.29, 180.88 2.49" stroke="#000000" stroke-width="1" fill="none"></path></g><g transform="translate(239.66015625 45.44921875) rotate(0 89.39706314739038 1.2373674469956768)"><path d="M153.76 11.88 C158.07 10.62, 166.64 7.43, 181.42 4.08 M152.06 12.25 C162.71 9.42, 172.7 5.08, 180.79 1.78" stroke="#000000" stroke-width="1" fill="none"></path></g><g transform="translate(239.66015625 45.44921875) rotate(0 89.39706314739038 1.2373674469956768)"><path d="M153.89 -8.64 C158.31 -4.87, 166.85 -3.04, 181.42 4.08 M152.19 -8.27 C162.74 -3.74, 172.69 -0.72, 180.79 1.78" stroke="#000000" stroke-width="1" fill="none"></path></g></g><g stroke-linecap="round" transform="translate(422.46875 10) rotate(0 95.423828125 40.697265625)"><path d="M0.66 -0.11 C55.46 0.2, 107.48 0.14, 189.4 -0.45 M-0.28 -0.78 C54 0.3, 109.55 1.8, 191.11 0.51 M190.64 1.79 C189.18 16.7, 189.4 34.23, 190.17 83.26 M191.35 0.33 C191.09 20.36, 191.98 40.61, 189.9 80.63 M191.37 81.17 C130.98 82.02, 66 80.95, 0.06 80.05 M191.14 81.94 C125.98 82.01, 60.65 83.42, -0.15 82.25 M-0.35 80.04 C0.19 61.2, -0.73 45.21, -0.28 -0.31 M0.36 81.79 C-0.76 59.82, -0.01 36.87, 0.61 -0.09" stroke="#000000" stroke-width="1" fill="none"></path></g><g transform="translate(451.59375 17.78125) rotate(0 59.5 24)"><text x="0" y="20" font-family="Cascadia, Segoe UI Emoji" font-size="20px" fill="#000000" text-anchor="start" style="white-space: pre;" direction="ltr">Has:</text><text x="0" y="44" font-family="Cascadia, Segoe UI Emoji" font-size="20px" fill="#000000" text-anchor="start" style="white-space: pre;" direction="ltr">variable c</text></g><g stroke-linecap="round" transform="translate(377.060546875 116.068359375) rotate(0 95.423828125 40.697265625)"><path d="M-0.16 1.14 C72.09 3.76, 144.22 1.52, 190.59 -1.04 M-0.08 -0.17 C52.15 0.71, 105.51 1.77, 191.16 -0.07 M191.55 0.07 C189.92 29.75, 191.84 63.88, 191.53 82.28 M191.74 0.58 C190.84 30.46, 189.6 60.49, 191.26 80.42 M189.17 79.81 C115.62 81.37, 39.08 81.44, -1.21 81.06 M190.53 81.77 C129.57 80.48, 68.52 82.2, 0.65 81.99 M-0.86 83.34 C-1.57 64.14, -1.83 47.55, -1.72 0.36 M-0.68 81.58 C0.93 59, -0.35 35.7, -0.06 -0.58" stroke="#000000" stroke-width="1" fill="none"></path></g><g transform="translate(406.181640625 123.845703125) rotate(0 59.5 24)"><text x="0" y="20" font-family="Cascadia, Segoe UI Emoji" font-size="20px" fill="#000000" text-anchor="start" style="white-space: pre;" direction="ltr">Has:</text><text x="0" y="44" font-family="Cascadia, Segoe UI Emoji" font-size="20px" fill="#000000" text-anchor="start" style="white-space: pre;" direction="ltr">variable a</text></g><g stroke-linecap="round"><g transform="translate(507.98828125 93.02734375) rotate(0 -5.178888489622636 13.358621534369945)"><path d="M0.6 0.58 C-1.28 5.06, -8.32 21.58, -10.56 25.97 M-0.55 -0.16 C-2.56 4.49, -9.29 22.17, -10.95 26.88" stroke="#000000" stroke-width="1" fill="none"></path></g><g transform="translate(507.98828125 93.02734375) rotate(0 -5.178888489622636 13.358621534369945)"><path d="M-10.16 13.4 C-12.49 15.96, -11.36 23.79, -10.08 28.2 M-10.23 12.5 C-11.32 17.4, -10.42 23.25, -11.54 26.57" stroke="#000000" stroke-width="1" fill="none"></path></g><g transform="translate(507.98828125 93.02734375) rotate(0 -5.178888489622636 13.358621534369945)"><path d="M-0.69 16.9 C-6.41 18.25, -8.7 24.81, -10.08 28.2 M-0.75 16 C-5.49 19.51, -8.25 24.01, -11.54 26.57" stroke="#000000" stroke-width="1" fill="none"></path></g></g><g stroke-linecap="round" transform="translate(371.802734375 221.755859375) rotate(0 95.423828125 40.697265625)"><path d="M-1.82 0.21 C54.31 -2.37, 108.32 -2.54, 192.73 1.29 M-0.51 -0.67 C48.8 1.87, 96.3 0.9, 190.53 -0.85 M189.76 -1.97 C193.39 31.72, 191.94 63.57, 190.92 79.99 M190.05 0.88 C191.97 32.74, 191.21 63.91, 190.53 82.15 M189.39 81.83 C124.04 79.13, 59.43 79.06, -0.75 82.95 M191.54 81.18 C147.89 83.79, 104.78 83.81, 0.65 80.5 M-0.85 79.73 C0.78 55.25, 0.2 25.72, 1.38 0.27 M0.15 82.33 C0.82 51.21, 1.1 23.76, 0.61 -0.02" stroke="#000000" stroke-width="1" fill="none"></path></g><g transform="translate(400.923828125 229.791015625) rotate(0 59.5 24)"><text x="0" y="20" font-family="Cascadia, Segoe UI Emoji" font-size="20px" fill="#000000" text-anchor="start" style="white-space: pre;" direction="ltr">Has:</text><text x="0" y="44" font-family="Cascadia, Segoe UI Emoji" font-size="20px" fill="#000000" text-anchor="start" style="white-space: pre;" direction="ltr">variable b</text></g><g stroke-linecap="round"><g transform="translate(204.3671875 162.12890625) rotate(0 85.71623203618452 -1.8001845474354923)"><path d="M1.12 0.87 C29.71 0.44, 142.87 -2.22, 171.19 -2.75 M0.25 0.28 C28.8 -0.47, 142.36 -3.75, 170.76 -4.47" stroke="#000000" stroke-width="1" fill="none"></path></g><g transform="translate(204.3671875 162.12890625) rotate(0 85.71623203618452 -1.8001845474354923)"><path d="M144.3 8.2 C151.66 4.66, 159.88 -1.45, 170.21 -5.18 M143.35 6.47 C149.75 3.04, 154.47 1.1, 170.45 -5.26" stroke="#000000" stroke-width="1" fill="none"></path></g><g transform="translate(204.3671875 162.12890625) rotate(0 85.71623203618452 -1.8001845474354923)"><path d="M143.74 -12.31 C151.21 -10.34, 159.59 -10.94, 170.21 -5.18 M142.79 -14.05 C149.18 -13.07, 154.02 -10.59, 170.45 -5.26" stroke="#000000" stroke-width="1" fill="none"></path></g></g><g stroke-linecap="round"><g transform="translate(170.0703125 260.1698401310332) rotate(0 99.66654535271226 2.8245884066675444)"><path d="M-0.56 0.98 C32.95 1.62, 166.8 3.52, 199.9 4.26 M1.34 0.45 C34.87 1.16, 166.21 4.15, 199.39 5.2" stroke="#000000" stroke-width="1" fill="none"></path></g><g transform="translate(170.0703125 260.1698401310332) rotate(0 99.66654535271226 2.8245884066675444)"><path d="M172.57 16.11 C174.77 11.23, 182.45 9.91, 197.65 5.27 M170.22 15.21 C181.27 10.86, 193.83 7.01, 200.12 5.14" stroke="#000000" stroke-width="1" fill="none"></path></g><g transform="translate(170.0703125 260.1698401310332) rotate(0 99.66654535271226 2.8245884066675444)"><path d="M173.11 -4.41 C175.28 -5.14, 182.85 -2.29, 197.65 5.27 M170.77 -5.3 C181.61 -1.61, 193.96 2.59, 200.12 5.14" stroke="#000000" stroke-width="1" fill="none"></path></g></g><g stroke-linecap="round"><g transform="translate(485.77734375 200.73828125) rotate(0 -5.765520958323009 12.307141427714328)"><path d="M0.04 0.57 C-1.59 4.75, -8.84 20.67, -10.36 24.8 M-1.4 -0.18 C-3.18 3.69, -10.23 19.06, -11.57 23.02" stroke="#000000" stroke-width="1" fill="none"></path></g><g transform="translate(485.77734375 200.73828125) rotate(0 -5.765520958323009 12.307141427714328)"><path d="M-10.47 9.45 C-10.53 14.12, -10.1 16.22, -11.52 23.04 M-10.8 9.65 C-11.51 14.61, -11.65 18.37, -11.09 22.57" stroke="#000000" stroke-width="1" fill="none"></path></g><g transform="translate(485.77734375 200.73828125) rotate(0 -5.765520958323009 12.307141427714328)"><path d="M-2.21 12.81 C-4.34 16.64, -6 17.89, -11.52 23.04 M-2.54 13.01 C-5.96 16.89, -8.79 19.56, -11.09 22.57" stroke="#000000" stroke-width="1" fill="none"></path></g></g></svg>