<svg version="1.1" xmlns="http://www.w3.org/2000/svg" viewBox="0 0 390.875 242.91796875" width="781.75" height="485.8359375">
  <!-- svg-source:excalidraw -->
  
  <defs>
    <style class="style-fonts">
      @font-face {
        font-family: "Virgil";
        src: url("https://excalidraw.com/Virgil.woff2");
      }
      @font-face {
        font-family: "Cascadia";
        src: url("https://excalidraw.com/Cascadia.woff2");
      }
    </style>
  </defs>
  <g stroke-linecap="round" transform="translate(10 10) rotate(0 185.4375 25.03125)"><path d="M0 0 C123.39 0, 246.79 0, 370.88 0 M0 0 C78.4 0, 156.8 0, 370.88 0 M370.88 0 C370.88 17.19, 370.88 34.37, 370.88 50.06 M370.88 0 C370.88 11.18, 370.88 22.36, 370.88 50.06 M370.88 50.06 C272.8 50.06, 174.73 50.06, 0 50.06 M370.88 50.06 C253.69 50.06, 136.51 50.06, 0 50.06 M0 50.06 C0 38.98, 0 27.91, 0 0 M0 50.06 C0 33.86, 0 17.66, 0 0" stroke="#000000" stroke-width="4" fill="none"></path></g><g transform="translate(120.4375 18.03125) rotate(0 75 17)"><text x="75" y="27" font-family="Cascadia, Segoe UI Emoji" font-size="28px" fill="#000000" text-anchor="middle" style="white-space: pre;" direction="ltr">Exception</text></g><g stroke-linecap="round" transform="translate(48.9375 88.490234375) rotate(0 146.5 29)"><path d="M0 0 C99.29 0, 198.59 0, 293 0 M0 0 C59.52 0, 119.04 0, 293 0 M293 0 C293 13.44, 293 26.88, 293 58 M293 0 C293 15.91, 293 31.83, 293 58 M293 58 C209.84 58, 126.68 58, 0 58 M293 58 C184.12 58, 75.23 58, 0 58 M0 58 C0 41.07, 0 24.14, 0 0 M0 58 C0 35.45, 0 12.91, 0 0" stroke="#000000" stroke-width="4" fill="none"></path></g><g transform="translate(106.4375 105.490234375) rotate(0 89 12)"><text x="89" y="20" font-family="Cascadia, Segoe UI Emoji" font-size="20px" fill="#000000" text-anchor="middle" style="white-space: pre;" direction="ltr">message: String</text></g><g stroke-linecap="round" transform="translate(48.9375 174.91796875) rotate(0 146.5 29)"><path d="M0 0 C101.47 0, 202.93 0, 293 0 M0 0 C109.49 0, 218.99 0, 293 0 M293 0 C293 18.33, 293 36.67, 293 58 M293 0 C293 23, 293 46, 293 58 M293 58 C194.42 58, 95.85 58, 0 58 M293 58 C180.98 58, 68.96 58, 0 58 M0 58 C0 40.73, 0 23.47, 0 0 M0 58 C0 44.59, 0 31.19, 0 0" stroke="#000000" stroke-width="4" fill="none"></path></g><g transform="translate(118.4375 191.91796875) rotate(0 77 12)"><text x="77" y="20" font-family="Cascadia, Segoe UI Emoji" font-size="20px" fill="#000000" text-anchor="middle" style="white-space: pre;" direction="ltr">cause: String</text></g><g stroke-linecap="round"><g transform="translate(195.3359375 60.7783203125) rotate(0 0.1015625 13.498046875)"><path d="M0 0 C0.03 4.5, 0.17 22.5, 0.2 27 M0 0 C0.03 4.5, 0.17 22.5, 0.2 27" stroke="#000000" stroke-width="4" fill="none"></path></g></g><g stroke-linecap="round"><g transform="translate(195.3359375 147.2060546875) rotate(0 0.1015625 13.498046875)"><path d="M0 0 C0.03 4.5, 0.17 22.5, 0.2 27 M0 0 C0.03 4.5, 0.17 22.5, 0.2 27" stroke="#000000" stroke-width="4" fill="none"></path></g></g></svg>